Land_normalized_pl02_filtered_grf
version=1
nRows=15
nColumns=37
inDegrees=yes
endheader
time		1_ground_force_vx		1_ground_force_vy		1_ground_force_vz		1_ground_force_px		1_ground_force_py		1_ground_force_pz		1_ground_torque_x		1_ground_torque_y		1_ground_torque_z		2_ground_force_vx		2_ground_force_vy		2_ground_force_vz		2_ground_force_px		2_ground_force_py		2_ground_force_pz		2_ground_torque_x		2_ground_torque_y		2_ground_torque_z		3_ground_force_vx		3_ground_force_vy		3_ground_force_vz		3_ground_force_px		3_ground_force_py		3_ground_force_pz		3_ground_torque_x		3_ground_torque_y		3_ground_torque_z		4_ground_force_vx		4_ground_force_vy		4_ground_force_vz		4_ground_force_px		4_ground_force_py		4_ground_force_pz		4_ground_torque_x		4_ground_torque_y		4_ground_torque_z		
0.979500		2.166133		-36.142219		-21.975518		0.141344		0.000000		0.215825		0.005770		-0.096267		-0.058533		-4.543269		-26.597610		-29.430482		-0.297576		0.000000		0.120143		-0.237024		-1.387609		-1.535401		0.960185		-0.646281		-0.863851		0.413168		1.262696		1.872956		0.017737		0.007163		0.032880		-1.263495		-1.711400		-1.933212		-0.353805		1.256772		1.900512		0.028611		-0.020733		0.040784		
0.982429		3.268002		-46.911888		-26.079194		0.139532		0.000000		0.212174		0.013647		-0.195863		-0.108873		-6.992871		-33.548348		-36.213149		-0.300278		0.000000		0.135246		-0.386260		-1.853029		-2.000213		0.839775		-0.644644		-0.863851		0.413163		1.262698		1.873042		0.016076		0.006274		0.033272		-1.177949		-1.751987		-2.004361		-0.353800		1.256790		1.900587		0.027007		-0.017660		0.041678		
0.985359		4.126416		-51.313905		-26.200917		0.137945		0.000000		0.207895		0.023188		-0.288281		-0.147175		-8.902315		-35.127492		-37.857851		-0.305175		0.000000		0.147515		-0.510626		-2.014789		-2.171399		0.703218		-0.630516		-0.867984		0.413156		1.262700		1.873124		0.014211		0.005262		0.033306		-1.120018		-1.788809		-2.104480		-0.353793		1.256808		1.900659		0.025857		-0.014517		0.042118		
0.988288		4.470028		-45.267609		-20.545962		0.135969		0.000000		0.200221		0.033426		-0.338300		-0.153491		-9.640110		-28.051052		-31.751248		-0.318052		0.000000		0.160699		-0.562454		-1.636690		-1.852572		0.577333		-0.602474		-0.880422		0.413147		1.262701		1.873202		0.012279		0.004044		0.032994		-1.093324		-1.817883		-2.230247		-0.353786		1.256827		1.900730		0.025096		-0.011357		0.041979		
0.991217		4.018260		-24.742244		-7.614351		0.131666		0.000000		0.172208		0.044950		-0.275874		-0.084589		-8.536913		-8.972908		-15.614405		-0.391097		0.000000		0.178433		-0.302887		-0.338289		-0.568764		0.486567		-0.559909		-0.903444		0.413134		1.262702		1.873278		0.010410		0.002565		0.032380		-1.096644		-1.836034		-2.374048		-0.353780		1.256845		1.900799		0.024638		-0.008240		0.041218		
0.994146		2.527376		13.652460		13.474783		0.174303		0.000000		0.323076		-0.042136		-0.206740		-0.211911		-4.986747		25.118184		12.021990		-0.188471		0.000000		0.155709		-0.057610		0.332408		0.167361		0.448767		-0.503112		-0.937468		0.413117		1.262702		1.873349		0.008714		0.000799		0.031550		-1.125012		-1.841315		-2.524954		-0.353775		1.256864		1.900865		0.024403		-0.005234		0.039867		
0.997076		-0.155819		72.051083		42.685031		0.143277		0.000000		0.242217		-0.000349		0.137111		0.081098		1.431991		76.491667		51.352898		-0.239663		0.000000		0.165416		0.069797		3.716064		2.494925		0.472263		-0.433511		-0.981345		0.413095		1.262702		1.873414		0.007266		-0.001249		0.030628		-1.171088		-1.833451		-2.670345		-0.353771		1.256881		1.900929		0.024341		-0.002423		0.038022		
1.000005		-4.040933		150.810518		78.861507		0.139978		0.000000		0.231959		-0.019709		0.735488		0.384595		10.832689		146.339019		100.940714		-0.248916		0.000000		0.176341		0.583965		7.888747		5.441444		0.554810		-0.353941		-1.032492		0.413069		1.262702		1.873473		0.006108		-0.003537		0.029765		-1.226395		-1.814259		-2.798030		-0.353769		1.256899		1.900986		0.024427		0.000083		0.035822		
1.002934		-8.955297		248.270930		119.706471		0.138378		0.000000		0.228208		-0.059392		1.646328		0.793751		22.924318		234.657706		157.577051		-0.249923		0.000000		0.186440		1.278062		13.082341		8.785014		0.684512		-0.268685		-1.086753		0.413039		1.262701		1.873525		0.005260		-0.005973		0.029118		-1.282278		-1.787793		-2.898369		-0.353772		1.256916		1.901038		0.024668		0.002154		0.033444		
1.005864		-14.515607		360.591127		161.937128		0.137231		0.000000		0.226599		-0.118028		2.931808		1.316546		36.922835		340.072258		216.367696		-0.247399		0.000000		0.196618		2.076756		19.127652		12.169783		0.841690		-0.183048		-1.138241		0.413006		1.262699		1.873568		0.004722		-0.008414		0.028827		-1.330802		-1.760072		-2.966405		-0.353778		1.256931		1.901083		0.025074		0.003655		0.031076		
1.008793		-20.163342		482.426616		201.826916		0.136256		0.000000		0.226094		-0.194225		4.646949		1.943929		51.601539		460.285408		271.360964		-0.242630		0.000000		0.207205		2.875424		25.648786		15.121393		1.002944		-0.102449		-1.179725		0.412973		1.262697		1.873605		0.004488		-0.010678		0.028999		-1.365218		-1.737889		-3.002534		-0.353789		1.256946		1.901121		0.025642		0.004479		0.028911		
1.011722		-25.229072		607.638942		235.868390		0.135365		0.000000		0.226325		-0.283748		6.834220		2.652628		65.387644		592.357914		316.352543		-0.236185		0.000000		0.218276		3.538865		32.058840		17.121789		1.144905		-0.031725		-1.203507		0.412942		1.262694		1.873631		0.004554		-0.012578		0.029680		-1.380217		-1.727480		-3.012131		-0.353805		1.256959		1.901151		0.026337		0.004568		0.027122		
1.014652		-29.046285		730.145192		261.542998		0.134521		0.000000		0.227110		-0.378427		9.513169		3.407428		76.564367		732.916008		345.907752		-0.228541		0.000000		0.229746		3.925539		37.576178		17.735546		1.248031		0.025276		-1.202817		0.412914		1.262691		1.873649		0.004910		-0.013958		0.030845		-1.372385		-1.733076		-3.003922		-0.353826		1.256970		1.901172		0.027092		0.003921		0.025843		
1.017581		-31.090920		844.585934		277.948522		0.133707		0.000000		0.228315		-0.466184		12.664592		4.167650		83.562959		878.062971		356.350767		-0.220277		0.000000		0.241396		3.932499		41.319918		16.770347		1.299490		0.065912		-1.173391		0.412891		1.262687		1.873656		0.005535		-0.014731		0.032380		-1.341043		-1.755841		-2.987578		-0.353851		1.256978		1.901183		0.027820		0.002598		0.025153		
1.020510		-31.104632		946.719704		286.043179		0.132901		0.000000		0.229811		-0.532648		16.212151		4.898331		85.310163		1023.030887		346.499241		-0.212094		0.000000		0.252916		3.546094		42.523840		14.403015		1.294738		0.088933		-1.114835		0.412874		1.262683		1.873654		0.006388		-0.014899		0.034090		-1.289192		-1.793481		-2.971331		-0.353876		1.256983		1.901182		0.028441		0.000699		0.025066		
